<svg width="25" height="25" viewBox="0 0 25 25" fill="none" xmlns="http://www.w3.org/2000/svg">
<g clip-path="url(#clip0_4009_1380)">
<path d="M20.3125 20.3125H4.6875C4.2731 20.3125 3.87567 20.1479 3.58265 19.8549C3.28962 19.5618 3.125 19.1644 3.125 18.75V7.8125C3.125 7.3981 3.28962 7.00067 3.58265 6.70765C3.87567 6.41462 4.2731 6.25 4.6875 6.25H7.8125L9.375 3.90625H15.625L17.1875 6.25H20.3125C20.7269 6.25 21.1243 6.41462 21.4174 6.70765C21.7104 7.00067 21.875 7.3981 21.875 7.8125V18.75C21.875 19.1644 21.7104 19.5618 21.4174 19.8549C21.1243 20.1479 20.7269 20.3125 20.3125 20.3125Z" stroke="white" stroke-width="1.5" stroke-linecap="round" stroke-linejoin="round"/>
<path d="M12.5 16.4062C14.4416 16.4062 16.0156 14.8323 16.0156 12.8906C16.0156 10.949 14.4416 9.375 12.5 9.375C10.5584 9.375 8.98438 10.949 8.98438 12.8906C8.98438 14.8323 10.5584 16.4062 12.5 16.4062Z" stroke="white" stroke-width="1.5" stroke-linecap="round" stroke-linejoin="round"/>
</g>
<defs>
<clipPath id="clip0_4009_1380">
<rect width="25" height="25" fill="white"/>
</clipPath>
</defs>
</svg>
