<svg width="21" height="21" viewBox="0 0 21 21" fill="none" xmlns="http://www.w3.org/2000/svg">
<g clip-path="url(#clip0_15_1670)">
<path d="M6.55676 17.3176C8.21094 18.275 10.1569 18.5981 12.0317 18.2267C13.9065 17.8554 15.5823 16.8148 16.7466 15.2991C17.9109 13.7834 18.4842 11.8961 18.3597 9.98886C18.2352 8.08167 17.4214 6.28484 16.0699 4.93337C14.7185 3.58191 12.9216 2.76806 11.0144 2.64357C9.10723 2.51907 7.21985 3.09242 5.70416 4.25671C4.18848 5.42101 3.14794 7.09679 2.77656 8.97162C2.40517 10.8464 2.72829 12.7924 3.68566 14.4465L2.65945 17.5104C2.62089 17.626 2.6153 17.7501 2.64329 17.8687C2.67129 17.9874 2.73177 18.0959 2.81796 18.1821C2.90415 18.2682 3.01264 18.3287 3.13127 18.3567C3.2499 18.3847 3.37398 18.3791 3.48961 18.3406L6.55676 17.3176Z" stroke="black" stroke-linecap="round" stroke-linejoin="round"/>
</g>
<defs>
<clipPath id="clip0_15_1670">
<rect width="21" height="21" fill="white"/>
</clipPath>
</defs>
</svg>
