<svg width="17" height="17" viewBox="0 0 17 17" fill="none" xmlns="http://www.w3.org/2000/svg">
<g clip-path="url(#clip0_15_1794)">
<path d="M8.5 9.29688C8.9401 9.29688 9.29688 8.9401 9.29688 8.5C9.29688 8.0599 8.9401 7.70312 8.5 7.70312C8.0599 7.70312 7.70312 8.0599 7.70312 8.5C7.70312 8.9401 8.0599 9.29688 8.5 9.29688Z" fill="black"/>
<path d="M13.0156 9.29688C13.4557 9.29688 13.8125 8.9401 13.8125 8.5C13.8125 8.0599 13.4557 7.70312 13.0156 7.70312C12.5755 7.70312 12.2188 8.0599 12.2188 8.5C12.2188 8.9401 12.5755 9.29688 13.0156 9.29688Z" fill="black"/>
<path d="M3.98438 9.29688C4.42448 9.29688 4.78125 8.9401 4.78125 8.5C4.78125 8.0599 4.42448 7.70312 3.98438 7.70312C3.54427 7.70312 3.1875 8.0599 3.1875 8.5C3.1875 8.9401 3.54427 9.29688 3.98438 9.29688Z" fill="black"/>
</g>
<defs>
<clipPath id="clip0_15_1794">
<rect width="17" height="17" fill="white"/>
</clipPath>
</defs>
</svg>
