<svg width="18" height="18" viewBox="0 0 18 18" fill="none" xmlns="http://www.w3.org/2000/svg">
<g clip-path="url(#clip0_15_1676)">
<path d="M12.375 7.3125H14.0625C14.2117 7.3125 14.3548 7.37176 14.4602 7.47725C14.5657 7.58274 14.625 7.72582 14.625 7.875V14.625C14.625 14.7742 14.5657 14.9173 14.4602 15.0227C14.3548 15.1282 14.2117 15.1875 14.0625 15.1875H3.9375C3.78832 15.1875 3.64524 15.1282 3.53975 15.0227C3.43426 14.9173 3.375 14.7742 3.375 14.625V7.875C3.375 7.72582 3.43426 7.58274 3.53975 7.47725C3.64524 7.37176 3.78832 7.3125 3.9375 7.3125H5.625" stroke="black" stroke-linecap="round" stroke-linejoin="round"/>
<path d="M6.1875 4.5L9 1.6875L11.8125 4.5" stroke="black" stroke-linecap="round" stroke-linejoin="round"/>
<path d="M9 1.6875V9.5625" stroke="black" stroke-linecap="round" stroke-linejoin="round"/>
</g>
<defs>
<clipPath id="clip0_15_1676">
<rect width="18" height="18" fill="white"/>
</clipPath>
</defs>
</svg>
