<svg width="13" height="13" viewBox="0 0 13 13" fill="none" xmlns="http://www.w3.org/2000/svg">
<g clip-path="url(#clip0_8_12)">
<path d="M4.875 4.0625V10.1903C4.87496 10.2571 4.85844 10.3229 4.82691 10.3818C4.79537 10.4407 4.7498 10.4909 4.69422 10.528L4.13563 10.9002C4.08144 10.9363 4.01937 10.9589 3.95464 10.966C3.88991 10.9731 3.82442 10.9646 3.76368 10.9411C3.70295 10.9176 3.64875 10.8798 3.60566 10.831C3.56257 10.7822 3.53186 10.7237 3.51609 10.6605L2.84375 8.125" stroke="#FE332E" stroke-linecap="round" stroke-linejoin="round"/>
<path d="M10.9688 10.1561C10.9687 10.2335 10.9466 10.3093 10.905 10.3745C10.8634 10.4397 10.8041 10.4917 10.7339 10.5244C10.6638 10.557 10.5858 10.5689 10.5091 10.5588C10.4324 10.5486 10.3602 10.5167 10.301 10.4669C7.64004 8.23457 4.875 8.12489 4.875 8.12489H2.84375C2.30503 8.12489 1.78837 7.91088 1.40744 7.52995C1.02651 7.14901 0.8125 6.63236 0.8125 6.09364C0.8125 5.55491 1.02651 5.03826 1.40744 4.65732C1.78837 4.27639 2.30503 4.06239 2.84375 4.06239H4.875C4.875 4.06239 7.64004 3.9527 10.301 1.72086C10.3601 1.67108 10.4323 1.63923 10.5089 1.62903C10.5856 1.61884 10.6636 1.63073 10.7337 1.66332C10.8038 1.6959 10.8632 1.74782 10.9048 1.81297C10.9465 1.87813 10.9686 1.95381 10.9688 2.03114V10.1561Z" stroke="#FE332E" stroke-linecap="round" stroke-linejoin="round"/>
</g>
<defs>
<clipPath id="clip0_8_12">
<rect width="13" height="13" fill="white" transform="matrix(-1 0 0 1 13 0)"/>
</clipPath>
</defs>
</svg>
