<svg width="15" height="15" viewBox="0 0 15 15" fill="none" xmlns="http://www.w3.org/2000/svg">
<path d="M7.3118 11.6079L11.1593 13.9739C11.2591 14.0345 11.3747 14.0642 11.4913 14.0591C11.608 14.0541 11.7206 14.0146 11.8148 13.9456C11.909 13.8766 11.9806 13.7812 12.0207 13.6715C12.0607 13.5617 12.0673 13.4426 12.0396 13.3292L10.9934 8.91426L14.4176 5.96113C14.5049 5.88447 14.5678 5.78393 14.5986 5.6719C14.6295 5.55988 14.6268 5.44128 14.591 5.33076C14.5551 5.22023 14.4877 5.12262 14.3971 5.04996C14.3064 4.9773 14.1965 4.93279 14.0808 4.92192L9.58711 4.55629L7.85602 0.365665C7.81189 0.257552 7.73655 0.165032 7.63963 0.0999065C7.5427 0.0347808 7.42857 0 7.3118 0C7.19502 0 7.0809 0.0347808 6.98397 0.0999065C6.88704 0.165032 6.81171 0.257552 6.76758 0.365665L5.03649 4.55629L0.542815 4.92192C0.426353 4.93214 0.315486 4.97646 0.224067 5.04933C0.132647 5.1222 0.0647276 5.2204 0.0287943 5.33165C-0.00713901 5.4429 -0.00949296 5.56227 0.0220267 5.67485C0.0535463 5.78743 0.117542 5.88823 0.206018 5.96465L3.63024 8.91778L2.58399 13.3292C2.55633 13.4426 2.56292 13.5617 2.60294 13.6715C2.64296 13.7812 2.7146 13.8766 2.80881 13.9456C2.90303 14.0146 3.01558 14.0541 3.13225 14.0591C3.24892 14.0642 3.36447 14.0345 3.4643 13.9739L7.3118 11.6079Z" fill="#FE332E"/>
</svg>
