<svg width="27" height="27" viewBox="0 0 27 27" fill="none" xmlns="http://www.w3.org/2000/svg">
<path opacity="0.987" fill-rule="evenodd" clip-rule="evenodd" d="M12.1653 1.79044C13.3887 1.65376 14.1127 1.65376 15.4272 1.79044C17.7542 2.13485 19.9113 3.21045 21.5866 4.86169C20.4545 5.9318 19.3373 7.01753 18.2352 8.11857C16.1247 6.32982 13.769 5.91694 11.168 6.87994C9.25998 7.75744 7.93135 9.17944 7.1821 11.1459C5.95772 10.2344 4.74929 9.30164 3.55735 8.34807C3.47452 8.30447 3.37991 8.2885 3.28735 8.30251C5.18073 4.65188 8.13948 2.48063 12.1636 1.78876" fill="#F44336"/>
<path opacity="0.997" fill-rule="evenodd" clip-rule="evenodd" d="M3.28393 8.3025C3.37956 8.28788 3.47012 8.30306 3.55562 8.34806C4.74756 9.30163 5.95599 10.2344 7.18037 11.1459C6.9877 11.9122 6.86625 12.6945 6.81756 13.4831C6.85918 14.2459 6.98012 14.9946 7.18037 15.7292L3.37506 18.7583C1.71793 15.2955 1.68756 11.8103 3.28393 8.3025Z" fill="#FFC107"/>
<path opacity="0.999" fill-rule="evenodd" clip-rule="evenodd" d="M21.406 22.4269C20.2211 21.3819 18.9807 20.4018 17.6901 19.4906C18.9839 18.5771 19.7691 17.3239 20.0459 15.7309H13.7059V11.3282C17.3622 11.2978 21.0167 11.3287 24.6696 11.421C25.3626 15.1841 24.5622 18.5771 22.2683 21.6C21.9955 21.8899 21.7066 22.1659 21.406 22.4269Z" fill="#448AFF"/>
<path opacity="0.993" fill-rule="evenodd" clip-rule="evenodd" d="M7.18031 15.7309C8.56406 19.17 11.1009 20.7754 14.7909 20.547C15.8268 20.4271 16.8199 20.0652 17.6901 19.4906C18.9816 20.4041 20.2202 21.3829 21.4059 22.4269C19.5272 24.1151 17.1317 25.1169 14.6104 25.2686C14.0375 25.3144 13.462 25.3144 12.8891 25.2686C8.59388 24.7624 5.4225 22.5922 3.375 18.7582L7.18031 15.7309Z" fill="#43A047"/>
</svg>
