<svg width="26" height="26" viewBox="0 0 26 26" fill="none" xmlns="http://www.w3.org/2000/svg">
<g clip-path="url(#clip0_6161_331)">
<path d="M4.875 4.0625L21.125 21.9375" stroke="#686866" stroke-linecap="round" stroke-linejoin="round"/>
<path d="M15.7331 16.0063C14.9358 16.7311 13.8832 17.1096 12.8068 17.0583C11.7305 17.0071 10.7186 16.5304 9.99378 15.7331C9.26893 14.9358 8.8905 13.8832 8.94173 12.8068C8.99297 11.7305 9.46968 10.7186 10.267 9.99377" stroke="#686866" stroke-linecap="round" stroke-linejoin="round"/>
<path d="M13.7648 9.00958C14.6285 9.17498 15.4152 9.61616 16.0067 10.2668C16.5982 10.9175 16.9627 11.7426 17.0452 12.6181" stroke="#686866" stroke-linecap="round" stroke-linejoin="round"/>
<path d="M21.1869 17.1742C23.401 15.1917 24.375 13 24.375 13C24.375 13 21.125 5.68751 13 5.68751C12.2964 5.68655 11.5939 5.74362 10.8997 5.85814" stroke="#686866" stroke-linecap="round" stroke-linejoin="round"/>
<path d="M7.51562 6.96716C3.37492 9.06341 1.625 13 1.625 13C1.625 13 4.875 20.3125 13 20.3125C14.9038 20.3274 16.7838 19.8887 18.4844 19.0328" stroke="#686866" stroke-linecap="round" stroke-linejoin="round"/>
</g>
<defs>
<clipPath id="clip0_6161_331">
<rect width="26" height="26" fill="white"/>
</clipPath>
</defs>
</svg>
