<svg width="16" height="16" viewBox="0 0 16 16" fill="none" xmlns="http://www.w3.org/2000/svg">
<path d="M7.8118 12.1079L11.6593 14.4739C11.7591 14.5345 11.8747 14.5642 11.9913 14.5591C12.108 14.5541 12.2206 14.5146 12.3148 14.4456C12.409 14.3766 12.4806 14.2812 12.5207 14.1715C12.5607 14.0617 12.5673 13.9426 12.5396 13.8292L11.4934 9.41426L14.9176 6.46113C15.0049 6.38447 15.0678 6.28393 15.0986 6.1719C15.1295 6.05988 15.1268 5.94128 15.091 5.83076C15.0551 5.72023 14.9877 5.62262 14.8971 5.54996C14.8064 5.4773 14.6965 5.43279 14.5808 5.42192L10.0871 5.05629L8.35602 0.865665C8.31189 0.757552 8.23655 0.665032 8.13963 0.599907C8.0427 0.534781 7.92857 0.5 7.8118 0.5C7.69503 0.5 7.5809 0.534781 7.48397 0.599907C7.38704 0.665032 7.31171 0.757552 7.26758 0.865665L5.53649 5.05629L1.04281 5.42192C0.926353 5.43214 0.815486 5.47646 0.724067 5.54933C0.632647 5.6222 0.564728 5.7204 0.528794 5.83165C0.492861 5.9429 0.490507 6.06227 0.522027 6.17485C0.553546 6.28743 0.617542 6.38823 0.706018 6.46465L4.13024 9.41777L3.08399 13.8292C3.05633 13.9426 3.06292 14.0617 3.10294 14.1715C3.14296 14.2812 3.2146 14.3766 3.30881 14.4456C3.40303 14.5146 3.51558 14.5541 3.63225 14.5591C3.74892 14.5642 3.86447 14.5345 3.9643 14.4739L7.8118 12.1079Z" stroke="#D5D6D7" stroke-linecap="round" stroke-linejoin="round"/>
</svg>
