<svg width="21" height="21" viewBox="0 0 21 21" fill="none" xmlns="http://www.w3.org/2000/svg">
<g clip-path="url(#clip0_15_1663)">
<path d="M2.625 8.53125H6.5625V17.0625H2.625C2.45095 17.0625 2.28403 16.9934 2.16096 16.8703C2.03789 16.7472 1.96875 16.5803 1.96875 16.4062V9.1875C1.96875 9.01345 2.03789 8.84653 2.16096 8.72346C2.28403 8.60039 2.45095 8.53125 2.625 8.53125Z" stroke="black" stroke-linecap="round" stroke-linejoin="round"/>
<path d="M6.5625 8.53125L9.84375 1.96875C10.5399 1.96875 11.2076 2.24531 11.6999 2.73759C12.1922 3.22988 12.4688 3.89756 12.4688 4.59375V6.5625H17.7188C17.9049 6.56255 18.089 6.60221 18.2586 6.67885C18.4283 6.75549 18.5798 6.86735 18.7029 7.007C18.826 7.14665 18.918 7.3109 18.9728 7.48884C19.0276 7.66678 19.0439 7.85434 19.0206 8.03906L18.0362 15.9141C17.9963 16.2312 17.842 16.5228 17.6023 16.7343C17.3626 16.9457 17.054 17.0624 16.7344 17.0625H6.5625" stroke="black" stroke-linecap="round" stroke-linejoin="round"/>
</g>
<defs>
<clipPath id="clip0_15_1663">
<rect width="21" height="21" fill="white"/>
</clipPath>
</defs>
</svg>
