<svg width="125" height="125" viewBox="0 0 125 125" fill="none" xmlns="http://www.w3.org/2000/svg">
<path d="M62.5 124C96.4655 124 124 96.4655 124 62.5C124 28.5345 96.4655 1 62.5 1C28.5345 1 1 28.5345 1 62.5C1 96.4655 28.5345 124 62.5 124Z" fill="#FDCED0" stroke="#FDCED0" stroke-width="2" stroke-linecap="round" stroke-linejoin="round"/>
<path d="M61.5 97C63.433 97 65 95.433 65 93.5C65 91.567 63.433 90 61.5 90C59.567 90 58 91.567 58 93.5C58 95.433 59.567 97 61.5 97Z" fill="white"/>
<path d="M62 78.5V63.125C73.3198 63.125 82.5 55.0916 82.5 45.1875C82.5 35.2834 73.3198 27.25 62 27.25C50.6802 27.25 41.5 35.2834 41.5 45.1875V47.75" stroke="white" stroke-width="5" stroke-linecap="round" stroke-linejoin="round"/>
</svg>
