<svg width="206" height="206" viewBox="0 0 206 206" fill="none" xmlns="http://www.w3.org/2000/svg">
<g clip-path="url(#clip0_4009_1375)">
<path d="M103 180.25C145.664 180.25 180.25 145.664 180.25 103C180.25 60.336 145.664 25.75 103 25.75C60.336 25.75 25.75 60.336 25.75 103C25.75 145.664 60.336 180.25 103 180.25Z" fill="#FDCED0" stroke="#FDCED0" stroke-width="2" stroke-linecap="round" stroke-linejoin="round"/>
<path d="M103 128.75C120.777 128.75 135.188 114.339 135.188 96.5625C135.188 78.7858 120.777 64.375 103 64.375C85.2233 64.375 70.8125 78.7858 70.8125 96.5625C70.8125 114.339 85.2233 128.75 103 128.75Z" stroke="white" stroke-width="5" stroke-linecap="round" stroke-linejoin="round"/>
<path d="M51.3391 160.431C56.1826 150.89 63.5733 142.878 72.6918 137.281C81.8104 131.684 92.3007 128.721 103 128.721C113.699 128.721 124.19 131.684 133.308 137.281C142.427 142.878 149.817 150.89 154.661 160.431" stroke="white" stroke-width="5" stroke-linecap="round" stroke-linejoin="round"/>
</g>
<defs>
<clipPath id="clip0_4009_1375">
<rect width="206" height="206" fill="white"/>
</clipPath>
</defs>
</svg>
