<svg width="16" height="16" viewBox="0 0 16 16" fill="none" xmlns="http://www.w3.org/2000/svg">
<g clip-path="url(#clip0_4011_1706)">
<path d="M7.99999 11.8182L11.42 13.9213C11.5087 13.9752 11.6114 14.0015 11.7151 13.997C11.8188 13.9925 11.9189 13.9574 12.0026 13.8961C12.0864 13.8347 12.1501 13.7499 12.1856 13.6524C12.2212 13.5549 12.2271 13.449 12.2025 13.3482L11.2725 9.42379L14.3162 6.79879C14.3938 6.73064 14.4498 6.64127 14.4772 6.54169C14.5046 6.44211 14.5022 6.33669 14.4704 6.23845C14.4385 6.14021 14.3786 6.05344 14.298 5.98885C14.2174 5.92427 14.1197 5.8847 14.0169 5.87504L10.0225 5.55004L8.48374 1.82504C8.44451 1.72893 8.37755 1.6467 8.29139 1.58881C8.20523 1.53092 8.10379 1.5 7.99999 1.5C7.89619 1.5 7.79474 1.53092 7.70858 1.58881C7.62243 1.6467 7.55547 1.72893 7.51624 1.82504L5.97749 5.55004L1.98311 5.87504C1.87959 5.88413 1.78104 5.92352 1.69978 5.98829C1.61852 6.05307 1.55815 6.14035 1.52621 6.23924C1.49426 6.33813 1.49217 6.44424 1.52019 6.54431C1.54821 6.64439 1.60509 6.73398 1.68374 6.80191L4.72749 9.42691L3.79749 13.3482C3.7729 13.449 3.77876 13.5549 3.81433 13.6524C3.84991 13.7499 3.91359 13.8347 3.99733 13.8961C4.08108 13.9574 4.18113 13.9925 4.28483 13.997C4.38854 14.0015 4.49125 13.9752 4.57999 13.9213L7.99999 11.8182Z" fill="#FFEAA5"/>
</g>
<defs>
<clipPath id="clip0_4011_1706">
<rect width="16" height="16" fill="white"/>
</clipPath>
</defs>
</svg>
