<svg width="16" height="16" viewBox="0 0 16 16" fill="none" xmlns="http://www.w3.org/2000/svg">
<g clip-path="url(#clip0_16_2948)">
<path d="M8 11.8182L11.42 13.9213C11.5087 13.9752 11.6114 14.0015 11.7152 13.997C11.8189 13.9925 11.9189 13.9574 12.0027 13.8961C12.0864 13.8347 12.1501 13.7499 12.1857 13.6524C12.2212 13.5549 12.2271 13.449 12.2025 13.3482L11.2725 9.42379L14.3163 6.79879C14.3939 6.73064 14.4498 6.64127 14.4772 6.54169C14.5046 6.44211 14.5022 6.33669 14.4704 6.23845C14.4385 6.14021 14.3786 6.05344 14.298 5.98885C14.2174 5.92427 14.1197 5.8847 14.0169 5.87504L10.0225 5.55004L8.48375 1.82504C8.44452 1.72893 8.37756 1.6467 8.29141 1.58881C8.20525 1.53092 8.1038 1.5 8 1.5C7.8962 1.5 7.79476 1.53092 7.7086 1.58881C7.62244 1.6467 7.55548 1.72893 7.51625 1.82504L5.9775 5.55004L1.98313 5.87504C1.87961 5.88413 1.78106 5.92352 1.6998 5.98829C1.61853 6.05307 1.55816 6.14035 1.52622 6.23924C1.49428 6.33813 1.49219 6.44424 1.5202 6.54431C1.54822 6.64439 1.60511 6.73398 1.68375 6.80191L4.7275 9.42691L3.7975 13.3482C3.77292 13.449 3.77878 13.5549 3.81435 13.6524C3.84992 13.7499 3.9136 13.8347 3.99735 13.8961C4.08109 13.9574 4.18114 13.9925 4.28485 13.997C4.38856 14.0015 4.49127 13.9752 4.58 13.9213L8 11.8182Z" fill="#FFEAA5"/>
</g>
<defs>
<clipPath id="clip0_16_2948">
<rect width="16" height="16" fill="white"/>
</clipPath>
</defs>
</svg>
