<svg width="28" height="28" viewBox="0 0 28 28" fill="none" xmlns="http://www.w3.org/2000/svg">
<g clip-path="url(#clip0_14_1168)">
<path d="M24.4661 4.61343C24.5083 4.46376 24.5098 4.30554 24.4705 4.15508C24.4313 4.00462 24.3526 3.86734 24.2426 3.75738C24.1327 3.64742 23.9954 3.56875 23.8449 3.52947C23.6945 3.49019 23.5363 3.49172 23.3866 3.5339L2.38658 9.90171C2.21513 9.9501 2.06253 10.0497 1.94919 10.1871C1.83585 10.3245 1.76715 10.4933 1.75229 10.6708C1.73743 10.8483 1.7771 11.0262 1.86602 11.1805C1.95493 11.3349 2.08884 11.4585 2.24986 11.5347L11.8125 16.1875L16.4653 25.7491C16.5415 25.9101 16.6651 26.044 16.8195 26.1329C16.9738 26.2218 17.1517 26.2615 17.3292 26.2466C17.5067 26.2318 17.6755 26.1631 17.8129 26.0497C17.9503 25.9364 18.0499 25.7838 18.0983 25.6123L24.4661 4.61343Z" fill="white" stroke="#FE332E" stroke-linecap="round" stroke-linejoin="round"/>
<path d="M11.8125 16.1875L17.5 10.5" stroke="#FE332E" stroke-linecap="round" stroke-linejoin="round"/>
</g>
<defs>
<clipPath id="clip0_14_1168">
<rect width="28" height="28" fill="white"/>
</clipPath>
</defs>
</svg>
