<svg width="36" height="36" viewBox="0 0 36 36" fill="none" xmlns="http://www.w3.org/2000/svg">
<g clip-path="url(#clip0_15_1636)">
<path d="M18 31.5C25.4558 31.5 31.5 25.4558 31.5 18C31.5 10.5442 25.4558 4.5 18 4.5C10.5442 4.5 4.5 10.5442 4.5 18C4.5 25.4558 10.5442 31.5 18 31.5Z" fill="#FDF3F4" stroke="#FDF3F4" stroke-linecap="round" stroke-linejoin="round"/>
<path d="M18 22.5C21.1066 22.5 23.625 19.9816 23.625 16.875C23.625 13.7684 21.1066 11.25 18 11.25C14.8934 11.25 12.375 13.7684 12.375 16.875C12.375 19.9816 14.8934 22.5 18 22.5Z" fill="#FDEBF0" stroke="#FDCED0" stroke-linecap="round" stroke-linejoin="round"/>
<path d="M8.97187 28.0364C9.81831 26.3691 11.1099 24.9689 12.7034 23.9907C14.297 23.0126 16.1302 22.4949 18 22.4949C19.8698 22.4949 21.703 23.0126 23.2966 23.9907C24.8901 24.9689 26.1817 26.3691 27.0281 28.0364" stroke="#FDCED0" stroke-linecap="round" stroke-linejoin="round"/>
</g>
<defs>
<clipPath id="clip0_15_1636">
<rect width="36" height="36" fill="white"/>
</clipPath>
</defs>
</svg>
